{"title":"Real.Steel.2011.TS.XviD.AC3-PRESTiGE","uid":6736793,"size":1188365764,"categoryP":"video","categoryS":"movies","magnet":"?xt=urn:btih:55874d017b35e71fae265dad5ecd1244c7d0715f&amp;dn=Real.Steel.2011.TS.XviD.AC3-PRESTiGE&amp;tr=udp%3A%2F%2Ftracker.openbittorrent.com%3A80&amp;tr=udp%3A%2F%2Fopen.demonii.com%3A1337&amp;tr=udp%3A%2F%2Ftracker.coppersurfer.tk%3A6969&amp;tr=udp%3A%2F%2Fexodus.desync.com%3A6969","seeders":0,"leechers":0,"uploader":"UltraTorrents","files":4,"time":1318357675,"description":"Cast:\nHugh Jackman, Dakota Goyo, Evangeline Lilly, Anthony Mackie, Kevin Durand, Hope Davis \n\nPlot:\nSet in the near future, where robot boxing is a top sport, a struggling promoter feels he's found a champion in a discarded robot. During his hopeful rise to the top, he discovers he has an 11-year-old son who wants to know his father. \n\n\nInfo, Poster and Trailer:\n        &lt;a href=&quot;\nhttp://www.sharepixon.net/movies/real-steel&quot; rel=&quot;nofollow&quot; target=&quot;_NEW&quot;&gt;\nhttp://www.sharepixon.net/movies/real-steel&lt;/a&gt;\n\n\t\n\nScreenshots:\n       &lt;a href=&quot;\nhttp://img.sharepixon.net/?v=realstusu.png&quot; rel=&quot;nofollow&quot; target=&quot;_NEW&quot;&gt;\nhttp://img.sharepixon.net/?v=realstusu.png&lt;/a&gt; &lt;a href=&quot;\nhttp://img.sharepixon.net/?v=realstvcv.png&quot; rel=&quot;nofollow&quot; target=&quot;_NEW&quot;&gt;\nhttp://img.sharepixon.net/?v=realstvcv.png&lt;/a&gt;\n\n\n\nID                               : 0\nFormat                           : MPEG-4 Visual\nFormat profile                   : Advanced Simple@L5\nFormat settings, BVOP            : 2\nFormat settings, QPel            : No\nFormat settings, GMC             : No warppoints\nFormat settings, Matrix          : Default (H.263)\nCodec ID                         : XVID\nCodec ID/Hint                    : XviD\nDuration                         : 1h 55mn\nBit rate                         : 892 Kbps\nWidth                            : 652 pixels\nHeight                           : 272 pixels\nDisplay aspect ratio             : 2.35:1\nFrame rate                       : 25.000 fps\nColor space                      : YUV\nChroma subsampling               : 4:2:0\nBit depth                        : 8 bits\nScan type                        : Progressive\nCompression mode                 : Lossy\nBits/(Pixel*Frame)               : 0.201\nStream size                      : 740 MiB (66%)\nWriting library                  : XviD 1.2.1 (UTC 2008-12-04)\n\n\n\n\nID                               : 1\nFormat                           : AC-3\nFormat/Info                      : Audio Coding 3\nMode extension                   : CM (complete main)\nCodec ID                         : 2000\nDuration                         : 1h 55mn\nBit rate mode                    : Constant\nBit rate                         : 448 Kbps\nChannel(s)                       : 2 channels\nChannel positions                : Front: L R\nSampling rate                    : 48.0 KHz\nBit depth                        : 16 bits\nCompression mode                 : Lossy\nStream size                      : 372 MiB (33%)\nAlignment                        : Aligned on interleaves\nInterleave, duration             : 64 ms (1.60 video frames)\nInterleave, preload duration     : 192 ms                \n\t\n","torrent":{"xt":"urn:btih:55874d017b35e71fae265dad5ecd1244c7d0715f","amp;dn":"Real.Steel.2011.TS.XviD.AC3-PRESTiGE","amp;tr":["udp%3A%2F%2Ftracker.openbittorrent.com%3A80","udp%3A%2F%2Fopen.demonii.com%3A1337","udp%3A%2F%2Ftracker.coppersurfer.tk%3A6969","udp%3A%2F%2Fexodus.desync.com%3A6969"],"infoHash":"55874d017b35e71fae265dad5ecd1244c7d0715f","infoHashBuffer":{"type":"Buffer","data":[85,135,77,1,123,53,231,31,174,38,93,173,94,205,18,68,199,208,113,95]},"announce":[],"urlList":[]}}